<?xml version="1.0" encoding="UTF-8"?>
<!DOCTYPE svg PUBLIC "-//W3C//DTD SVG 1.1//EN" "http://www.w3.org/Graphics/SVG/1.1/DTD/svg11.dtd">
<!-- Creator: CorelDRAW 2020 (64-Bit) -->
<svg xmlns="http://www.w3.org/2000/svg" xml:space="preserve" width="1.24375in" height="1.24375in" version="1.1" style="shape-rendering:geometricPrecision; text-rendering:geometricPrecision; image-rendering:optimizeQuality; fill-rule:evenodd; clip-rule:evenodd"
viewBox="0 0 30.53 30.53"
 xmlns:xlink="http://www.w3.org/1999/xlink"
 xmlns:xodm="http://www.corel.com/coreldraw/odm/2003">
 <defs>
  <style type="text/css">
   <![CDATA[
    .fil0 {fill:#232323;fill-rule:nonzero}
    .fil1 {fill:#E6DA89;fill-rule:nonzero}
   ]]>
  </style>
 </defs>
 <g id="Layer_x0020_1">
  <metadata id="CorelCorpID_0Corel-Layer"/>
  <path class="fil0" d="M30.53 15.26c0,8.43 -6.83,15.26 -15.26,15.26 -8.43,0 -15.26,-6.83 -15.26,-15.26 0,-8.43 6.83,-15.26 15.26,-15.26 8.43,0 15.26,6.83 15.26,15.26z"/>
  <path class="fil1" d="M19.84 9.51c-2.54,0 -4.58,2.06 -4.58,4.59 0,-2.54 -2.04,-4.59 -4.58,-4.59 -2.54,0 -4.59,2.06 -4.59,4.59 0,5.72 9.17,10.52 9.17,10.52 0,0 9.17,-4.8 9.17,-10.52 0,-2.54 -2.06,-4.59 -4.59,-4.59z"/>
 </g>
</svg>
