<?xml version="1.0" encoding="UTF-8"?>
<!DOCTYPE svg PUBLIC "-//W3C//DTD SVG 1.1//EN" "http://www.w3.org/Graphics/SVG/1.1/DTD/svg11.dtd">
<!-- Creator: CorelDRAW 2020 (64-Bit) -->
<svg xmlns="http://www.w3.org/2000/svg" xml:space="preserve" width="1.86074in" height="1.86448in" version="1.1" style="shape-rendering:geometricPrecision; text-rendering:geometricPrecision; image-rendering:optimizeQuality; fill-rule:evenodd; clip-rule:evenodd"
viewBox="0 0 74.22 74.37"
 xmlns:xlink="http://www.w3.org/1999/xlink"
 xmlns:xodm="http://www.corel.com/coreldraw/odm/2003">
 <defs>
  <style type="text/css">
   <![CDATA[
    .fil0 {fill:#232323;fill-rule:nonzero}
    .fil1 {fill:#E6DA89;fill-rule:nonzero}
   ]]>
  </style>
 </defs>
 <g id="Layer_x0020_1">
  <metadata id="CorelCorpID_0Corel-Layer"/>
  <path class="fil0" d="M74.22 37.25c0.01,20.49 -16.65,37.16 -36.99,37.12 -20.66,-0.04 -35,-15.84 -36.94,-32.51 -1.28,-11.04 1.67,-20.86 8.94,-29.18 7.32,-8.39 16.78,-12.7 27.94,-12.68 20.23,0.04 37.18,16.43 37.06,37.25z"/>
  <path class="fil1" d="M42.32 51.14c-3.27,0 -6.55,0 -9.82,-0 -1.18,-0 -1.61,-0.38 -1.6,-1.56 0.04,-5.11 -0.23,-10.22 0.14,-15.32 0.24,-3.28 1.54,-6.21 3.56,-8.81 1.37,-1.76 2.8,-3.46 4.4,-5.02 0.52,-0.5 0.78,-1.07 0.77,-1.8 -0.01,-0.87 0.07,-1.75 0.05,-2.62 -0.03,-1.09 0.33,-2 1.36,-2.41 1.07,-0.43 2.11,-0.21 2.98,0.6 0.84,0.79 1.17,1.84 1.43,2.92 0.67,2.75 0.15,5.37 -0.98,7.9 -0.38,0.85 -0.72,1.71 -1.15,2.54 -0.28,0.54 -0.06,0.73 0.42,0.81 0.25,0.04 0.51,0.02 0.76,0.02 2.94,-0.01 5.87,-0.02 8.81,-0.02 1.6,-0 2.69,0.76 3.07,2.13 0.42,1.53 -0.19,3.29 -1.48,3.98 -0.58,0.31 -0.56,0.44 -0.06,0.8 1.07,0.75 1.79,1.71 1.57,3.13 -0.17,1.08 -0.7,1.82 -1.76,2.16 -0.2,0.06 -0.51,0.05 -0.55,0.31 -0.04,0.27 0.28,0.32 0.45,0.44 1.41,1.05 1.6,3.85 -0.47,4.71 -0.4,0.16 -0.57,0.26 -0.15,0.67 0.91,0.87 0.92,1.99 0.49,3.06 -0.41,1.04 -1.34,1.36 -2.42,1.35 -3.27,-0.01 -6.55,-0 -9.82,-0 0,0.02 0,0.03 0,0.05z"/>
  <path class="fil1" d="M26.94 54.06c-2.71,0.01 -5.41,0.01 -8.12,0.03 -0.81,0 -1.18,-0.45 -1.27,-1.18 -0.05,-0.39 -0.02,-0.79 -0.02,-1.18 0,-5.67 0,-11.34 0.01,-17 0,-1.4 0.35,-1.74 1.76,-1.74 2.43,-0 4.85,-0.01 7.28,0 0.97,0 1.47,0.43 1.47,1.35 0.01,5.95 -0.01,11.9 -0.03,17.85 0,0.03 -0.02,0.05 -0.02,0.08 -0.15,0.05 -0.13,0.1 -0.01,0.16 0.05,0.64 0.03,1.25 -0.71,1.53 -0.02,-0.18 -0.08,-0.37 -0.29,-0.31 -0.24,0.07 -0.02,0.28 -0.06,0.42z"/>
 </g>
</svg>
