<?xml version="1.0" encoding="UTF-8"?>
<!DOCTYPE svg PUBLIC "-//W3C//DTD SVG 1.1//EN" "http://www.w3.org/Graphics/SVG/1.1/DTD/svg11.dtd">
<!-- Creator: CorelDRAW 2020 (64-Bit) -->
<svg xmlns="http://www.w3.org/2000/svg" xml:space="preserve" width="1.0602in" height="1.06021in" version="1.1" style="shape-rendering:geometricPrecision; text-rendering:geometricPrecision; image-rendering:optimizeQuality; fill-rule:evenodd; clip-rule:evenodd"
viewBox="0 0 23.18 23.18"
 xmlns:xlink="http://www.w3.org/1999/xlink"
 xmlns:xodm="http://www.corel.com/coreldraw/odm/2003">
 <defs>
  <style type="text/css">
   <![CDATA[
    .fil1 {fill:#E6DA89}
    .fil0 {fill:#232323;fill-rule:nonzero}
   ]]>
  </style>
 </defs>
 <g id="Layer_x0020_1">
  <metadata id="CorelCorpID_0Corel-Layer"/>
  <path class="fil0" d="M23.18 11.59c0,6.4 -5.19,11.59 -11.59,11.59 -6.4,0 -11.59,-5.19 -11.59,-11.59 0,-6.4 5.19,-11.59 11.59,-11.59 6.4,0 11.59,5.19 11.59,11.59z"/>
  <path class="fil1" d="M8.06 14.73c-1.28,-1.09 -2.07,-3.13 -4.14,-2.92 -1.2,1.62 -0.08,2.22 1.22,3.7 3.67,4.17 2.35,4.02 12.46,-6.14 3.88,-3.9 1.95,-5.77 -0.99,-2.81 -1.75,1.76 -7.28,7.71 -8.54,8.17z"/>
 </g>
</svg>
